# xmcd
#
# Track frame offsets:
#  150
#  15154
#  27946
#  38642
#  51046
#  63832
#  74058
#  83637
#  96196
#  105873
#  116285
#  125850
#  140086
#  149800
#  160678
#  171772
#
# Disc length: 2494 seconds
#
# Revision: 0
# Processed by: cddbd v1.5.2PL0 Copyright (c) Steve Scherf et al.
# Submitted via: Collectorz.com_Music_Collector 6.11
#
DISCID=d409bc10
DTITLE=Various Artist - Country Music Express
DYEAR=1900
DGENRE=Country
TTITLE0=Bill Anderson - Deck Of Cards
TTITLE1=Billie Joe Spears - Dallas
TTITLE2=Billy Walker - Charlie's Shoes
TTITLE3=Bobbie Bare - Music City USA
TTITLE4=Conway Twitty - Crazy Dreams
TTITLE5=Dave Dudley - Seven Lonely Days
TTITLE6=Faron Young - Hello Walls
TTITLE7=Frankie Laine - Moonlight Gambler
TTITLE8=Glen Campbell - Dreams Of The Everyday Housewife
TTITLE9=Hank Locklin - Stumpy Joe
TTITLE10=Hank Thompson - Green Light
TTITLE11=Jim Reeves - Highway To Nowhere
TTITLE12=Jimmy Dean - Freight Train Blues
TTITLE13=Joe Stampley - Souls Song
TTITLE14=Patsy Cline - Hungry For Love
TTITLE15=Roy Clark - I'll Paint You A Song
EXTD=
EXTT0=
EXTT1=
EXTT2=
EXTT3=
EXTT4=
EXTT5=
EXTT6=
EXTT7=
EXTT8=
EXTT9=
EXTT10=
EXTT11=
EXTT12=
EXTT13=
EXTT14=
EXTT15=
PLAYORDER=
